<svg width="942" height="436" viewBox="0 0 942 436" fill="none" xmlns="http://www.w3.org/2000/svg">
<rect width="942" height="436" fill="#E5E5E5"/>
<g id="undraw_online_test_gba7 1" clip-path="url(#clip0)">
<path id="Vector" d="M84.4936 414.524L83.2264 414.049C82.9479 413.944 55.2339 403.325 42.2514 379.249C29.2684 355.172 35.6255 326.182 35.6913 325.893L35.9905 324.573L37.2571 325.048C37.5355 325.153 65.249 335.771 78.2321 359.847C91.2151 383.925 84.8579 412.914 84.7922 413.203L84.4936 414.524ZM44.3303 378.128C55.3065 398.485 77.207 408.92 82.7559 411.302C83.8109 405.355 87.1196 381.305 76.1532 360.968C65.1879 340.633 43.2788 330.182 37.7275 327.794C36.6719 333.745 33.3645 357.793 44.3303 378.128Z" fill="#3F3D56"/>
<path id="Vector_2" d="M52.173 370.804C75.5042 384.84 84.4898 412.721 84.4898 412.721C84.4898 412.721 55.648 417.844 32.3168 403.807C8.98558 389.771 0 361.89 0 361.89C0 361.89 28.8418 356.767 52.173 370.804Z" fill="#69E275"/>
<path id="Vector_3" d="M798.85 5.36232H538.681V0H420.71V5.36232H159.468C157.157 5.36232 154.868 5.81753 152.733 6.70193C150.598 7.58634 148.658 8.88264 147.024 10.5168C145.39 12.151 144.093 14.091 143.209 16.2262C142.324 18.3613 141.869 20.6498 141.869 22.9608V379.213C141.869 383.88 143.723 388.357 147.024 391.657C150.324 394.957 154.8 396.812 159.468 396.812H798.85C801.162 396.812 803.45 396.356 805.585 395.472C807.72 394.588 809.66 393.291 811.295 391.657C812.929 390.023 814.225 388.083 815.109 385.948C815.994 383.813 816.449 381.524 816.449 379.213V22.9608C816.449 20.6498 815.994 18.3613 815.109 16.2262C814.225 14.091 812.929 12.151 811.295 10.5168C809.66 8.88263 807.72 7.58633 805.585 6.70192C803.45 5.81751 801.162 5.36231 798.85 5.36232V5.36232Z" fill="#3F3D56"/>
<path id="Vector_4" d="M792.855 36.4637H165.464V390.377H792.855V36.4637Z" fill="#F84D4D"/>
<path id="Vector_5" d="M478.623 26.8116C482.177 26.8116 485.058 23.9306 485.058 20.3768C485.058 16.823 482.177 13.942 478.623 13.942C475.069 13.942 472.188 16.823 472.188 20.3768C472.188 23.9306 475.069 26.8116 478.623 26.8116Z" fill="#6C63FF"/>
<path id="Vector_6" d="M756.838 81.5068H727.098V51.7669H756.838V81.5068ZM728.391 80.2138H755.545V53.0599H728.391V80.2138Z" fill="#3F3D56"/>
<path id="Vector_7" d="M834.065 383.942H772.836V379.53C772.836 379.416 772.813 379.302 772.769 379.196C772.725 379.09 772.661 378.993 772.579 378.912C772.498 378.831 772.402 378.766 772.296 378.722C772.189 378.678 772.076 378.656 771.961 378.656H750.968C750.853 378.656 750.739 378.678 750.633 378.722C750.527 378.766 750.431 378.831 750.349 378.912C750.268 378.993 750.204 379.09 750.16 379.196C750.116 379.302 750.093 379.416 750.093 379.53V383.942H736.973V379.53C736.973 379.416 736.95 379.302 736.906 379.196C736.862 379.09 736.798 378.993 736.716 378.912C736.635 378.831 736.539 378.766 736.433 378.722C736.327 378.678 736.213 378.656 736.098 378.656H715.105C714.99 378.656 714.876 378.678 714.77 378.722C714.664 378.766 714.568 378.831 714.487 378.912C714.405 378.993 714.341 379.09 714.297 379.196C714.253 379.302 714.23 379.416 714.23 379.53V383.942H701.11V379.53C701.11 379.416 701.087 379.302 701.043 379.196C700.999 379.09 700.935 378.993 700.854 378.912C700.772 378.831 700.676 378.766 700.57 378.722C700.464 378.678 700.35 378.656 700.235 378.656H679.242C679.127 378.656 679.013 378.678 678.907 378.722C678.801 378.766 678.705 378.831 678.624 378.912C678.542 378.993 678.478 379.09 678.434 379.196C678.39 379.302 678.367 379.416 678.367 379.53V383.942H665.247V379.53C665.247 379.416 665.224 379.302 665.18 379.196C665.136 379.09 665.072 378.993 664.991 378.912C664.909 378.831 664.813 378.766 664.707 378.722C664.601 378.678 664.487 378.656 664.372 378.656H643.379C643.264 378.656 643.151 378.678 643.044 378.722C642.938 378.766 642.842 378.831 642.761 378.912C642.68 378.993 642.615 379.09 642.571 379.196C642.527 379.302 642.505 379.416 642.505 379.53V383.942H629.384V379.53C629.384 379.416 629.361 379.302 629.317 379.196C629.273 379.09 629.209 378.993 629.128 378.912C629.047 378.831 628.95 378.766 628.844 378.722C628.738 378.678 628.624 378.656 628.509 378.656H607.516C607.401 378.656 607.288 378.678 607.182 378.722C607.076 378.766 606.979 378.831 606.898 378.912C606.817 378.993 606.752 379.09 606.708 379.196C606.664 379.302 606.642 379.416 606.642 379.53V383.942H593.521V379.53C593.521 379.416 593.498 379.302 593.455 379.196C593.411 379.09 593.346 378.993 593.265 378.912C593.184 378.831 593.087 378.766 592.981 378.722C592.875 378.678 592.761 378.656 592.646 378.656H571.654C571.539 378.656 571.425 378.678 571.319 378.722C571.213 378.766 571.116 378.831 571.035 378.912C570.954 378.993 570.889 379.09 570.845 379.196C570.801 379.302 570.779 379.416 570.779 379.53V383.942H557.658V379.53C557.658 379.416 557.636 379.302 557.592 379.196C557.548 379.09 557.483 378.993 557.402 378.912C557.321 378.831 557.224 378.766 557.118 378.722C557.012 378.678 556.898 378.656 556.784 378.656H392.339C392.224 378.656 392.11 378.678 392.004 378.722C391.898 378.766 391.802 378.831 391.721 378.912C391.639 378.993 391.575 379.09 391.531 379.196C391.487 379.302 391.464 379.416 391.464 379.53V383.942H378.344V379.53C378.344 379.416 378.321 379.302 378.277 379.196C378.233 379.09 378.169 378.993 378.088 378.912C378.006 378.831 377.91 378.766 377.804 378.722C377.698 378.678 377.584 378.656 377.469 378.656H356.476C356.361 378.656 356.248 378.678 356.141 378.722C356.035 378.766 355.939 378.831 355.858 378.912C355.776 378.993 355.712 379.09 355.668 379.196C355.624 379.302 355.601 379.416 355.601 379.53V383.942H342.481V379.53C342.481 379.416 342.458 379.302 342.414 379.196C342.37 379.09 342.306 378.993 342.225 378.912C342.143 378.831 342.047 378.766 341.941 378.722C341.835 378.678 341.721 378.656 341.606 378.656H320.613C320.498 378.656 320.385 378.678 320.279 378.722C320.172 378.766 320.076 378.831 319.995 378.912C319.914 378.993 319.849 379.09 319.805 379.196C319.761 379.302 319.739 379.416 319.739 379.53V383.942H306.618V379.53C306.618 379.416 306.595 379.302 306.551 379.196C306.507 379.09 306.443 378.993 306.362 378.912C306.281 378.831 306.184 378.766 306.078 378.722C305.972 378.678 305.858 378.656 305.743 378.656H284.75C284.636 378.656 284.522 378.678 284.416 378.722C284.31 378.766 284.213 378.831 284.132 378.912C284.051 378.993 283.986 379.09 283.942 379.196C283.898 379.302 283.876 379.416 283.876 379.53V383.942H270.755V379.53C270.755 379.416 270.733 379.302 270.689 379.196C270.645 379.09 270.58 378.993 270.499 378.912C270.418 378.831 270.321 378.766 270.215 378.722C270.109 378.678 269.995 378.656 269.88 378.656H248.887C248.773 378.656 248.659 378.678 248.553 378.722C248.447 378.766 248.35 378.831 248.269 378.912C248.188 378.993 248.123 379.09 248.079 379.196C248.035 379.302 248.013 379.416 248.013 379.53V383.942H234.892V379.53C234.892 379.416 234.87 379.302 234.826 379.196C234.782 379.09 234.717 378.993 234.636 378.912C234.555 378.831 234.458 378.766 234.352 378.722C234.246 378.678 234.132 378.656 234.018 378.656H213.025C212.91 378.656 212.796 378.678 212.69 378.722C212.584 378.766 212.487 378.831 212.406 378.912C212.325 378.993 212.26 379.09 212.217 379.196C212.173 379.302 212.15 379.416 212.15 379.53V383.942H199.029V379.53C199.029 379.416 199.007 379.302 198.963 379.196C198.919 379.09 198.854 378.993 198.773 378.912C198.692 378.831 198.596 378.766 198.489 378.722C198.383 378.678 198.27 378.656 198.155 378.656H177.162C177.047 378.656 176.933 378.678 176.827 378.722C176.721 378.766 176.624 378.831 176.543 378.912C176.462 378.993 176.398 379.09 176.354 379.196C176.31 379.302 176.287 379.416 176.287 379.53V383.942H136.051C130.483 383.942 125.143 386.154 121.206 390.091C117.269 394.028 115.058 399.367 115.058 404.935V414.427C115.058 419.995 117.27 425.335 121.206 429.272C125.143 433.209 130.483 435.42 136.051 435.42H834.065C839.632 435.42 844.972 433.209 848.909 429.272C852.846 425.335 855.058 419.995 855.058 414.427V404.935C855.058 399.367 852.846 394.028 848.909 390.091C844.972 386.154 839.632 383.942 834.065 383.942V383.942Z" fill="#3F3D56"/>
<path id="Vector_8" d="M941.404 413.883H28.7113V416.669H941.404V413.883Z" fill="#3F3D56"/>
<path id="Vector_9" d="M754.072 233.671H552.072V118.671H754.072V233.671ZM554.072 231.671H752.072V120.671H554.072V231.671Z" fill="#3F3D56"/>
<path id="Vector_10" d="M384.072 256.671H204.072V144.671H384.072V256.671ZM206.072 254.671H382.072V146.671H206.072V254.671Z" fill="#3F3D56"/>
<path id="Vector_11" d="M288.166 213.671L287.993 211.434C287.478 206.791 289.026 201.717 293.325 196.557C297.196 191.999 299.345 188.645 299.345 184.775C299.345 180.389 296.594 177.466 291.176 177.38C288.077 177.367 285.048 178.297 282.49 180.046L280.426 174.628C283.264 172.563 288.166 171.187 292.723 171.187C302.614 171.187 307.085 177.294 307.085 183.829C307.085 189.677 303.817 193.891 299.689 198.793C295.906 203.264 294.53 207.049 294.787 211.434L294.873 213.671L288.166 213.671ZM286.274 225.711C286.227 225.009 286.327 224.305 286.567 223.644C286.806 222.983 287.18 222.379 287.665 221.87C288.15 221.361 288.735 220.958 289.384 220.686C290.032 220.415 290.73 220.281 291.433 220.293C294.444 220.293 296.508 222.528 296.508 225.711C296.536 226.4 296.425 227.089 296.18 227.734C295.936 228.38 295.564 228.969 295.086 229.468C294.608 229.966 294.034 230.362 293.399 230.633C292.764 230.903 292.081 231.043 291.391 231.043C290.7 231.043 290.017 230.903 289.382 230.633C288.747 230.362 288.174 229.966 287.696 229.468C287.218 228.969 286.845 228.38 286.601 227.734C286.357 227.089 286.245 226.4 286.274 225.711V225.711Z" fill="#D0CDE1"/>
<path id="Vector_12" d="M647.166 188.671L646.994 186.434C646.478 181.791 648.026 176.717 652.326 171.557C656.196 166.999 658.346 163.645 658.346 159.775C658.346 155.389 655.594 152.466 650.176 152.38C647.077 152.367 644.048 153.297 641.49 155.046L639.426 149.628C642.264 147.563 647.166 146.187 651.723 146.187C661.614 146.187 666.085 152.294 666.085 158.829C666.085 164.677 662.817 168.891 658.689 173.793C654.906 178.264 653.53 182.049 653.787 186.434L653.873 188.671L647.166 188.671ZM645.274 200.711C645.228 200.009 645.327 199.305 645.567 198.644C645.806 197.983 646.18 197.379 646.665 196.87C647.15 196.361 647.735 195.958 648.384 195.686C649.033 195.415 649.73 195.281 650.433 195.293C653.444 195.293 655.508 197.528 655.508 200.711C655.536 201.4 655.425 202.089 655.18 202.734C654.936 203.38 654.564 203.969 654.086 204.468C653.608 204.966 653.034 205.362 652.399 205.633C651.764 205.903 651.081 206.043 650.391 206.043C649.7 206.043 649.017 205.903 648.382 205.633C647.747 205.362 647.174 204.966 646.696 204.468C646.218 203.969 645.845 203.38 645.601 202.734C645.357 202.089 645.245 201.4 645.274 200.711V200.711Z" fill="#D0CDE1"/>
<path id="Vector_13" d="M482.693 347.141C530.351 347.141 568.985 308.507 568.985 260.849C568.985 213.191 530.351 174.556 482.693 174.556C435.035 174.556 396.401 213.191 396.401 260.849C396.401 308.507 435.035 347.141 482.693 347.141Z" fill="#2F2E41"/>
<path id="Vector_14" d="M449.365 379.018L423.568 374.348L431.935 320.484L457.731 325.154L449.365 379.018Z" fill="#2F2E41"/>
<path id="Vector_15" d="M509.324 334.493L483.527 329.823L475.161 376.042L500.957 380.711L509.324 334.493Z" fill="#2F2E41"/>
<path id="Vector_16" d="M518.199 383.229C519.094 378.794 510.232 373.263 498.405 370.876C486.579 368.488 476.266 370.148 475.37 374.583C474.475 379.018 483.337 384.549 495.163 386.936C506.99 389.324 517.303 387.664 518.199 383.229Z" fill="#2F2E41"/>
<path id="Vector_17" d="M464.47 381.836C465.064 377.351 455.85 372.43 443.889 370.846C431.928 369.261 421.75 371.613 421.156 376.098C420.562 380.583 429.776 385.504 441.737 387.088C453.698 388.673 463.876 386.321 464.47 381.836Z" fill="#2F2E41"/>
<path id="Vector_18" d="M488.734 269.233C505.023 269.233 518.227 256.029 518.227 239.741C518.227 223.453 505.023 210.249 488.734 210.249C472.446 210.249 459.242 223.453 459.242 239.741C459.242 256.029 472.446 269.233 488.734 269.233Z" fill="white"/>
<path id="Vector_19" d="M500.856 239.001C506.285 239.001 510.686 234.599 510.686 229.17C510.686 223.74 506.285 219.339 500.856 219.339C495.426 219.339 491.025 223.74 491.025 229.17C491.025 234.599 495.426 239.001 500.856 239.001Z" fill="#3F3D56"/>
<path id="Vector_20" d="M414.621 166.972C413.323 135.025 440.856 107.966 476.118 106.534C511.38 105.102 541.018 129.838 542.315 161.785C543.613 193.732 519.101 200.99 483.84 202.423C448.578 203.855 415.918 198.919 414.621 166.972Z" fill="white"/>
<path id="Vector_21" d="M565.398 258.33C588.625 253.006 606.099 242.779 604.428 235.488C602.756 228.196 582.572 226.601 559.346 231.925C536.119 237.249 518.645 247.476 520.317 254.768C521.988 262.059 542.172 263.654 565.398 258.33Z" fill="#2F2E41"/>
<path id="Vector_22" d="M396.01 286.499C419.236 281.175 436.71 270.948 435.039 263.657C433.368 256.365 413.184 254.77 389.957 260.094C366.731 265.418 349.257 275.645 350.928 282.937C352.599 290.228 372.783 291.823 396.01 286.499Z" fill="#2F2E41"/>
<path id="Vector_23" d="M458.993 294.855C458.533 297.396 458.578 300.003 459.125 302.526C459.673 305.049 460.712 307.44 462.183 309.562C463.654 311.683 465.529 313.495 467.7 314.892C469.872 316.289 472.297 317.245 474.838 317.705C477.378 318.165 479.985 318.12 482.508 317.572C485.031 317.025 487.422 315.986 489.544 314.515C491.666 313.043 493.477 311.169 494.874 308.997C496.271 306.826 497.227 304.401 497.687 301.86C499.621 291.175 491.36 287.394 480.675 285.46C469.99 283.525 460.927 284.17 458.993 294.855Z" fill="white"/>
<path id="Vector_24" d="M296.422 13.1223H154.535V148.09H296.422V13.1223Z" fill="#D0CDE1"/>
<path id="Vector_25" d="M280.298 29.2458H170.658V113.088H280.298V29.2458Z" fill="white"/>
<path id="Vector_26" d="M230.186 122.979H170.55V126.118H230.186V122.979Z" fill="#F2F2F2"/>
<path id="Vector_27" d="M230.186 132.396H170.55V135.534H230.186V132.396Z" fill="#F2F2F2"/>
<path id="Vector_28" d="M190.167 83.7447C197.101 83.7447 202.722 78.1236 202.722 71.1896C202.722 64.2556 197.101 58.6345 190.167 58.6345C183.233 58.6345 177.612 64.2556 177.612 71.1896C177.612 78.1236 183.233 83.7447 190.167 83.7447Z" fill="#3F3D56"/>
<path id="Vector_29" d="M225.478 83.7447C232.412 83.7447 238.033 78.1236 238.033 71.1896C238.033 64.2556 232.412 58.6345 225.478 58.6345C218.544 58.6345 212.923 64.2556 212.923 71.1896C212.923 78.1236 218.544 83.7447 225.478 83.7447Z" fill="#FF6581"/>
<path id="Vector_30" d="M260.789 83.7447C267.723 83.7447 273.345 78.1236 273.345 71.1896C273.345 64.2556 267.723 58.6345 260.789 58.6345C253.855 58.6345 248.234 64.2556 248.234 71.1896C248.234 78.1236 253.855 83.7447 260.789 83.7447Z" fill="#E6E6E6"/>
<path id="Vector_31" d="M225.478 27.2467C228.945 27.2467 231.756 24.4362 231.756 20.9692C231.756 17.5022 228.945 14.6917 225.478 14.6917C222.011 14.6917 219.201 17.5022 219.201 20.9692C219.201 24.4362 222.011 27.2467 225.478 27.2467Z" fill="#3F3D56"/>
<path id="Vector_32" d="M363.909 274.459H222.022V409.426H363.909V274.459Z" fill="#D0CDE1"/>
<path id="Vector_33" d="M347.786 290.582H238.146V374.425H347.786V290.582Z" fill="white"/>
<path id="Vector_34" d="M300.709 304.361H262.272V342.798H300.709V304.361Z" fill="#6C63FF"/>
<path id="Vector_35" d="M276.986 313.973V360.646H323.66V313.973H276.986ZM321.635 358.622H279.01V315.997H321.635V358.622Z" fill="#3F3D56"/>
<path id="Vector_36" d="M297.674 382.747H238.037V385.885H297.674V382.747Z" fill="#F2F2F2"/>
<path id="Vector_37" d="M292.966 288.583C296.433 288.583 299.243 285.773 299.243 282.306C299.243 278.839 296.433 276.028 292.966 276.028C289.499 276.028 286.688 278.839 286.688 282.306C286.688 285.773 289.499 288.583 292.966 288.583Z" fill="#3F3D56"/>
<path id="Vector_38" d="M733.323 234.053H591.437V369.02H733.323V234.053Z" fill="#D0CDE1"/>
<path id="Vector_39" d="M717.2 250.176H607.56V334.019H717.2V250.176Z" fill="white"/>
<path id="Vector_40" d="M674.173 315.812H650.587V322.802H674.173V315.812Z" fill="#3F3D56"/>
<path id="Vector_41" d="M702.688 261.393H622.072V264.388H702.688V261.393Z" fill="#3F3D56"/>
<path id="Vector_42" d="M702.688 270.879H622.072V273.874H702.688V270.879Z" fill="#3F3D56"/>
<path id="Vector_43" d="M702.688 280.365H622.072V283.36H702.688V280.365Z" fill="#3F3D56"/>
<path id="Vector_44" d="M702.688 289.851H622.072V292.846H702.688V289.851Z" fill="#3F3D56"/>
<path id="Vector_45" d="M702.688 299.337H622.072V302.332H702.688V299.337Z" fill="#3F3D56"/>
<path id="Vector_46" d="M667.088 342.341H607.451V345.479H667.088V342.341Z" fill="#F2F2F2"/>
<path id="Vector_47" d="M690.629 350.187H607.451V353.326H690.629V350.187Z" fill="#F2F2F2"/>
<path id="Vector_48" d="M662.38 248.177C665.847 248.177 668.658 245.367 668.658 241.9C668.658 238.433 665.847 235.622 662.38 235.622C658.913 235.622 656.102 238.433 656.102 241.9C656.102 245.367 658.913 248.177 662.38 248.177Z" fill="#3F3D56"/>
</g>
<defs>
<clipPath id="clip0">
<rect width="941.404" height="435.42" fill="white"/>
</clipPath>
</defs>
</svg>
