<svg width="1067" height="850" viewBox="0 0 1067 850" fill="none" xmlns="http://www.w3.org/2000/svg">
<g id="QUIZARD 1">
<g id="surface1">
<g id="Group">
<path id="Vector" d="M380.918 711.722C395.404 712.48 408.522 706.787 415.038 698.007C386.254 697.142 364.876 694.894 349.044 692.115C352.575 702.729 365.142 710.923 380.918 711.722Z" fill="#004AAD"/>
</g>
<g id="Group_2">
<path id="Vector_2" d="M520.905 710.913C536.671 709.866 549.13 701.475 552.575 690.805C536.773 693.834 515.397 696.42 486.647 697.754C493.253 706.414 506.428 711.9 520.905 710.913Z" fill="#004AAD"/>
</g>
<path id="Vector_3" d="M196.434 209.619L205.949 182.268L214.051 176.791L212.768 173.352L201.958 180.638L191.579 205.512L196.434 209.619Z" fill="#004AAD"/>
<path id="Vector_4" d="M156.289 136.63L157.095 136.625C158.505 123.664 163.759 119.762 181.414 118.565L181.412 117.991C163.746 117.026 158.454 113.194 156.918 100.253L156.112 100.258C154.724 113.219 149.47 117.121 131.815 118.318L131.818 118.892C149.484 119.856 154.775 123.688 156.289 136.63Z" fill="#004AAD"/>
<path id="Vector_5" d="M126.094 181.221C124.882 192.357 120.362 195.697 105.216 196.725L105.219 197.232C120.374 198.061 124.926 201.34 126.246 212.46L126.937 212.455C128.126 201.319 132.646 197.98 147.815 196.951L147.813 196.444C132.635 195.616 128.082 192.319 126.785 181.217L126.094 181.221Z" fill="#004AAD"/>
<g id="Group_3">
<path id="Vector_6" d="M98.5305 170.547L99.4513 170.54C101.056 155.678 107.088 151.197 127.363 149.805L127.36 149.131C107.072 148.062 100.995 143.678 99.2381 128.843L98.3172 128.85C96.7126 143.712 90.6807 148.193 70.4052 149.584L70.4086 150.258C90.6967 151.327 96.774 155.712 98.5305 170.547Z" fill="#004AAD"/>
</g>
<g id="Group_4">
<path id="Vector_7" d="M582.836 214.51C569.45 217.404 557.104 220.84 557.104 220.84C560.105 218.011 566.511 214.52 571.242 212.145C551.747 208.807 529.567 207.544 523.744 207.956C520.568 208.182 516.071 206.73 510.464 204.503C506.04 203.685 501.679 202.016 497.965 200.575C495.658 199.675 493.074 198.676 491.945 198.518C487.613 197.934 462.241 198.148 452.739 199.525C444.917 200.671 438.398 200.088 432.662 199.564C430.405 199.365 428.262 199.165 426.167 199.097C421.837 198.964 400.337 204.359 381.899 209.697L381.875 209.647C374.932 211.639 366.95 213.004 357.257 213.229C318.374 214.167 289.764 225.096 289.092 233.301C288.701 237.897 304.91 242.363 321.618 245.256C328.259 242.799 341.406 238.204 347.414 237.89C347.414 237.89 340.043 241.739 331.457 246.766C340.996 248.078 349.634 248.745 354.076 248.493C359.232 248.203 366.838 249.78 377.187 251.837C377.137 251.086 377.087 250.335 377.083 249.583C376.997 232.799 412.899 224.987 448.517 224.71C484.134 224.432 520.09 231.684 520.175 248.468C520.177 248.752 520.155 249.019 520.157 249.303C533.586 245.925 544.51 243.401 555.063 244.922C579.256 248.391 599.91 235.103 603.075 228.064C605.715 222.164 596.183 217.713 582.836 214.51Z" fill="#004AAD"/>
</g>
<path id="Vector_8" d="M426.686 192.371C429.082 192.457 431.477 192.678 433.804 192.899C439.125 193.387 444.654 193.908 451.097 192.953C461.474 191.433 487.861 191.174 493.621 191.981C495.672 192.271 498.025 193.117 500.678 194.146C495.359 175.25 484.259 151.292 478.815 149.335C470.996 146.532 486.562 122.939 484.313 115.202C482.042 107.465 539.22 84.661 549.184 73.9896C559.149 63.3183 488.983 85.8874 463.446 95.0402C437.909 104.176 429.911 140.454 414.377 147.075C409.092 149.339 404.39 157.712 400.478 167.787C406.825 166.073 421.521 162.497 439.243 160.793C422.775 164.549 407.422 170.46 397.934 174.863C395.029 183.596 392.679 192.798 391.033 200.003C403.52 196.577 421.021 192.122 426.686 192.371Z" fill="#004AAD"/>
<path id="Vector_9" d="M513.041 255.146C513.376 253.134 513.573 251.071 513.563 248.976C513.435 222.655 383.592 223.512 383.72 249.833C383.73 251.928 383.948 253.988 384.326 255.996L384.073 256.014C384.202 258.92 384.555 265.27 385.219 273.898C385.81 281.869 386.711 291.797 387.962 302.855C387.779 303.093 387.595 303.297 387.389 303.551L386.97 302.591C381.312 303.946 336.08 316.494 315.423 372.89C295.208 378.142 265.107 386.569 233.384 397.54C233.384 397.54 233.712 398.771 234.229 400.846L228.318 402.135L228.419 356.687L216.96 325.203L229.438 301.181L216.181 283.377L223.301 251.348L232.656 247.89L233.452 241.178L242.732 236.437L242.133 231.508L234.339 233.975L242.49 224.46L242.088 222.283L242.179 222.198L241.437 206.829L248.696 193.738L238.103 179.515L229.394 164.181L207.416 157.281L188.695 171.36L178.759 192.73L168.079 207.837L175.388 228.67L171.281 231.789L187.2 247.481L181.709 288.065L193.903 309.525L187.617 333.354L201.311 360.228L199.91 408.472L200.031 409.485C192.682 413.639 189.125 420.792 191.852 427.684C193.624 432.133 197.694 435.603 202.816 437.681L204.777 457.452L209.508 469.044L207.881 475.458L223.026 535.656L229.452 706.454L242.802 700.588L240.494 576.274L243.983 545.621L239.81 539.87L239.064 500.071L228.027 451.284L228.098 437.447L241.83 434.467C244.688 449.214 246.833 464.186 245.275 470.498C241.798 484.577 285.512 444.096 346.602 429.771C346.326 434.639 346.12 439.624 346.03 444.795C346.03 444.845 346.03 444.896 346.031 444.947C344.804 519.427 328.575 600.917 319.016 642.879C331.513 646.378 365.882 653.855 440.897 657.331C440.897 657.331 383.786 665.699 316.377 654.233C313.782 665.113 312.108 671.358 312.108 671.358C312.108 671.358 325.453 692.761 450.783 691.934C576.113 691.106 589.271 669.529 589.271 669.529C589.271 669.529 555.921 549.627 553.148 443.58C553.146 443.056 553.12 442.567 553.095 442.043L561.775 441.918C561.778 442.425 561.803 442.932 561.806 443.422C562.456 468.253 564.815 493.951 568.044 518.697C568.09 518.697 568.113 518.697 568.136 518.697C568.596 518.728 569.057 518.725 569.517 518.722C581.652 518.641 591.773 511.631 592.466 502.621C598.151 426.506 587.839 370.349 561.811 335.7C542.018 309.357 518.662 303.04 509.904 301.56C511.026 290.673 511.784 280.919 512.322 273.06C512.901 264.423 513.17 258.068 513.294 255.162L513.041 255.146ZM222.739 169.006L230.195 182.135L239.119 194.156L232.704 205.721L233.422 220.634L229.28 225.966L221.549 227.217L215.091 234.457L214.712 232.347L195.439 232.322L193.51 233.569L184.182 228.258L177.293 208.587L186.578 195.415L196.264 174.756L209.433 164.837L222.739 169.006ZM429.43 273.962C434.569 269.957 441.329 267.902 449.503 267.848C457.7 267.794 464.479 269.76 469.657 273.696C476.451 278.855 478.698 286.274 479.413 291.236C490.536 286.787 499.714 280.036 505.753 271.853C501.735 330.944 486.679 440.538 449.584 440.783C412.489 441.028 396.345 331.622 391.775 272.605C398.149 281.044 407.945 287.906 419.779 292.17C420.353 287.233 422.411 279.414 429.43 273.962Z" fill="#004AAD"/>
<path id="Vector_10" d="M468.179 294.713C468.049 291.625 467.137 283.967 461.29 279.55C458.332 277.324 454.504 276.252 449.531 276.285C444.58 276.318 440.741 277.44 437.827 279.704C431.817 284.352 431.12 292.426 431.064 295.279C436.734 296.423 442.701 297.025 448.872 296.984C455.595 296.94 462.061 296.155 468.179 294.713Z" fill="#004AAD"/>
<g id="Group_5">
<path id="Vector_11" d="M394.586 776.33C379.184 776.452 365.775 770.14 363.213 768.85C360.42 767.46 357.948 765.817 351.269 760.963C347.979 761.443 344.665 761.721 341.35 761.781C341.005 761.801 340.636 761.804 340.291 761.806C326.593 761.915 313.429 758.558 301.146 751.8C281.636 741.084 268.338 725.026 262.252 705.584C249.639 710.876 234.255 714.475 221.363 714.745C220.994 714.765 220.649 714.768 220.281 714.771C215.239 714.811 210.425 714.378 205.953 713.473C188.091 709.867 177.35 698.359 179.839 685.503C180.064 684.376 180.449 683.045 181.063 681.579C175.518 677.792 171.739 672.681 170.536 667.062C168.862 659.346 172.092 651.743 179.431 646.191C181.794 644.391 184.318 642.792 186.936 641.394C186.774 641.277 186.589 641.144 186.427 641.011C177.99 634.542 175.201 624.853 179.301 616.252C182.536 609.522 188.827 605.944 190.962 604.751C196.585 601.38 203.506 599.511 210.758 599.369C210.965 599.351 211.195 599.349 211.402 599.348C217.227 599.301 222.942 600.298 230.71 602.001C230.71 602.001 233.452 602.433 234.811 602.64C244.512 604.143 255.503 605.854 266.644 609.882C269.804 611.016 273.45 612.667 277.007 614.807C283.678 604.707 291.196 597.96 297.896 593.472C308.382 586.466 321.785 582.597 336.68 582.277C337.071 582.274 337.462 582.271 337.854 582.268C354.154 582.139 370.914 586.392 384.879 593.338C385.246 593.083 385.613 592.828 385.98 592.556L388.481 590.84L391.445 589.573C401.093 585.38 410.844 583.152 420.421 582.959C420.697 582.94 420.95 582.938 421.226 582.936C433.935 582.835 447.285 586.644 456.054 594.925C456.788 594.382 457.568 593.855 458.371 593.345C464.797 589.278 473.12 586.944 481.799 586.758C482.006 586.756 482.236 586.754 482.466 586.753C487.785 586.71 493.13 587.475 498.042 588.965C504.471 585.503 512.105 583.561 520.231 583.396C520.485 583.394 520.738 583.392 520.991 583.39C530.43 583.315 539.053 585.633 546.324 589.12C551.371 585.636 558.93 582.586 570.157 580.918C579.199 579.569 589.189 579.104 595.98 578.966C597.615 578.936 599.295 578.906 600.976 578.893C626.209 578.693 654.334 581.31 662.482 598.736C662.831 599.472 663.111 600.193 663.368 600.913C669.526 598.563 677.526 596.114 686.781 595.923C687.034 595.921 687.264 595.919 687.517 595.917C690.004 595.897 692.491 596.046 694.887 596.363C709.84 598.311 720.674 605.399 723.856 615.304C725.587 620.65 726.005 630.274 713.369 640.219C722.666 643.725 729.053 650.025 730.519 657.574C731.111 660.762 731.711 670.065 720.585 678.083C722.788 681.073 724.117 684.39 724.388 687.882C725.223 698.04 717.326 707.176 703.812 711.735C699.077 713.335 693.878 714.166 687.846 714.281C687.455 714.284 676.84 714.082 663.591 712.188C668.278 719.274 667.677 727.697 661.887 734.581C658.729 738.336 654.163 741.379 648.372 743.592C641.088 746.355 633.247 748.4 625.678 749.501C624.343 749.697 622.618 749.996 620.617 750.331C610.955 751.936 596.347 754.37 582.235 754.667C581.66 754.688 581.084 754.693 580.508 754.697C566.787 754.806 556.715 752.685 549.308 749.601C542.875 752.34 535.239 753.879 526.952 754.046L526.929 754.046C526.606 754.065 526.284 754.068 525.962 754.07C516.407 754.146 506.751 752.391 499.345 749.241C494.337 747.096 490.525 744.539 487.656 741.789C486.419 742.891 485.089 743.977 483.644 745.03C473.735 752.4 460.404 756.773 447.051 757.064C446.775 757.066 446.476 757.068 446.177 757.071C441.181 757.11 436.274 756.578 431.571 755.506C430.765 755.311 429.958 755.099 429.174 754.887C428.366 758.959 426.356 762.117 424.617 764.214C418.53 771.537 407.571 776.059 395.3 776.308C395.047 776.326 394.817 776.328 394.586 776.33Z" fill="#D0D1D8"/>
</g>
<g id="Group_6">
<path id="Vector_12" d="M391.887 765.913C376.21 766.239 362.408 759.762 359.8 758.455C357.007 757.066 354.535 755.422 347.856 750.569C344.566 751.049 341.276 751.327 337.937 751.387C323.871 751.683 310.339 748.329 297.733 741.405C278.223 730.689 264.925 714.631 258.84 695.19C246.227 700.481 230.842 704.081 217.95 704.351C212.517 704.461 207.334 704.032 202.564 703.078C184.679 699.473 173.937 687.965 176.45 675.092C176.651 673.981 177.036 672.651 177.673 671.184C172.105 667.397 168.326 662.286 167.123 656.667C165.449 648.952 168.679 641.349 176.019 635.797C178.381 633.997 180.905 632.398 183.523 630.999C183.361 630.866 183.199 630.75 183.014 630.617C174.578 624.148 171.788 614.442 175.889 605.857C179.124 599.128 185.437 595.55 187.549 594.357C193.172 590.986 200.093 589.116 207.345 588.958C213.399 588.843 219.253 589.838 227.297 591.589C227.297 591.589 230.062 592.038 231.398 592.246C241.099 593.748 252.113 595.459 263.231 599.471C266.391 600.622 270.038 602.273 273.594 604.395C280.289 594.312 287.783 587.566 294.483 583.077C304.969 576.072 318.372 572.186 333.267 571.883C349.934 571.533 367.155 575.832 381.489 582.943C381.833 582.689 382.2 582.417 382.59 582.162L385.068 580.445L388.032 579.162C397.68 574.986 407.431 572.758 417.008 572.548C429.946 572.277 443.687 576.067 452.641 584.531C453.375 583.988 454.155 583.444 454.958 582.95C461.384 578.884 469.707 576.533 478.386 576.363C483.934 576.235 489.51 577.015 494.652 578.57C501.058 575.109 508.692 573.167 516.842 573.001C526.58 572.79 535.456 575.156 542.911 578.726C547.958 575.242 555.517 572.191 566.744 570.506C575.786 569.175 585.776 568.709 592.567 568.571C618.973 568.01 650.386 569.761 659.069 588.342C659.418 589.078 659.721 589.798 659.955 590.519C666.137 588.168 674.113 585.719 683.391 585.528C686.107 585.473 688.848 585.619 691.474 585.951C706.427 587.916 717.284 595.005 720.443 604.893C722.174 610.239 722.592 619.879 709.956 629.808C719.253 633.33 725.663 639.63 727.106 647.18C727.721 650.367 728.298 659.671 717.172 667.689C719.375 670.679 720.704 673.995 720.998 677.487C721.81 687.646 713.914 696.781 700.422 701.34C695.687 702.924 690.465 703.755 684.433 703.886C684.18 703.888 673.519 703.704 660.202 701.793C664.866 708.88 664.264 717.302 658.474 724.169C655.316 727.941 650.773 730.984 644.982 733.198C637.675 735.961 629.834 738.005 622.265 739.107C620.93 739.302 619.205 739.601 617.204 739.936C607.542 741.542 592.957 743.976 578.845 744.272C564.227 744.59 553.625 742.422 545.895 739.207C539.463 741.929 531.827 743.485 523.539 743.651C513.663 743.864 503.592 742.112 495.932 738.829C490.925 736.685 487.113 734.127 484.244 731.378C483.006 732.48 481.676 733.582 480.254 734.635C470.345 741.989 456.991 746.379 443.662 746.669C438.344 746.778 433.138 746.248 428.182 745.095C427.352 744.916 426.545 744.704 425.761 744.492C424.953 748.564 422.943 751.722 421.204 753.819C415.117 761.143 404.158 765.648 391.887 765.913Z" fill="#004AAD"/>
</g>
<path id="Vector_13" d="M638.068 670.8C640.469 676.82 680.544 683.84 687.647 681.45C692.544 679.799 689.839 677.591 686.243 676.755C675.778 674.329 665.29 672.155 654.712 670.219C651.094 669.551 642.1 666.576 638.564 668.757C637.899 669.183 637.672 669.825 638.068 670.8ZM204.953 612.502C204.657 613.128 204.777 614.189 205.332 614.624C215.616 622.48 238.623 623.34 252.589 625.946C265.656 628.389 254.107 620.794 249.378 619.055C240.082 615.677 229.554 614.431 219.506 612.76C218.585 612.615 208.372 610.119 207.156 610.937C206.307 611.499 205.227 611.91 204.953 612.502ZM641.052 650.01C648.874 653.449 658.088 654.147 667.023 654.442C674.001 654.683 685.453 656.479 691.797 654.076C693.382 653.459 700.437 650.445 694.008 649.527C680.114 647.528 665.649 646.443 651.509 645.946C649.068 645.861 641.331 645.743 638.757 646.839C637.333 647.455 637.475 648.432 641.052 650.01ZM252.21 671.03C259.965 665.432 247.06 663.14 241.792 664.203C231.28 666.363 220.551 671.323 210.806 674.91C209.082 675.545 207.152 676.384 206.883 677.785C206.501 679.693 208.394 680.743 210.975 681.265C222.615 683.65 243.973 676.985 252.21 671.03ZM222.582 653.337C230.935 652.271 239.359 651.642 247.832 651.553C249.605 651.541 251.539 651.511 252.963 650.71C262.079 645.592 230.979 642.29 227.894 642.445C217.696 642.934 205.481 645.223 198.14 650.801C196.741 651.855 197.58 654.092 199.449 654.821C200.971 655.401 202.677 655.711 203.991 656.073C207.795 657.093 218.21 653.889 222.582 653.337ZM682.779 617.888C686.935 615.619 696.254 609.454 685.839 608.056C679.78 607.253 670.983 611.863 665.95 613.633C656.663 616.897 647.539 620.396 638.577 624.131C632.488 626.649 631.718 629.301 637.581 632.23C638.642 632.762 640.231 632.752 642.72 633.174C652.86 634.911 675.178 622.069 682.779 617.888ZM507.897 626.491C507.658 643.723 507.42 660.971 507.159 678.203C507.061 686.583 506.941 694.963 506.821 703.36C506.731 708.62 504.214 716.611 511.667 719.816C516.836 722.041 528.167 722.658 532.57 719.004C534.474 717.424 535.454 715.377 536.273 713.366C542.347 698.304 544.82 681.294 546.287 665.689C548.191 645.311 545.902 624.504 535.655 605.386C532.774 600.044 518.914 590.896 511.232 597.454C511.003 597.641 510.797 597.845 510.591 598.066C505.209 603.985 508.004 620.067 507.897 626.491ZM606.689 600.738C604.226 605.795 601.511 610.803 598.841 615.794C585.949 639.937 572.344 664.068 562.472 688.966C559.606 696.184 553.375 707.555 556.199 715.207C561.076 728.494 603.537 719.481 616.422 717.609C621.323 716.903 626.427 715.503 630.863 713.822C631.392 713.616 631.966 713.393 632.287 713.003C636.201 708.341 599.42 710.961 596.543 711.249C578.661 713.019 593.861 690.176 596.342 684.225C607.836 656.736 624.701 630.392 630.156 601.713C630.561 599.687 630.873 597.577 629.965 595.661C626.638 588.501 563.739 589.893 563.675 595.592C563.534 609.08 597.287 594.561 606.757 600.569C606.734 600.619 606.711 600.687 606.689 600.738ZM399.763 648.715C402.457 662.943 405.52 677.237 411.136 691.041C415.191 701.046 421.963 720.322 437.661 723.978C444.876 725.667 452.992 723.22 458.315 719.257C463.637 715.31 466.72 710.064 469.481 704.903C481.619 682.08 489.838 658.137 493.173 633.804C494.507 624.084 494.964 613.898 489.579 604.981C488.302 602.865 486.611 600.769 483.957 599.505C481.28 598.242 477.48 598.047 475.07 599.564C472.315 601.302 472.376 604.336 472.619 606.964C475.323 637.394 471.213 668.173 460.512 697.713C458.649 702.884 448.974 720.768 439.15 713.044C433.649 708.713 435.646 693.156 435.18 687.41C434.468 678.361 434.079 669.31 433.643 660.243C432.751 642.496 432.642 624.744 431.772 606.997C431.131 593.446 417.837 591.882 403.661 598.027C389.111 608.053 397.47 636.592 399.763 648.715ZM353.837 693.222C356.535 694.081 362.985 656.763 363.062 653.829C363.314 643.982 362.207 634.126 359.765 624.448C358.097 617.766 353.72 598.39 341.089 609.819C316.239 632.271 309.591 666.623 315.92 694.399C317.261 700.325 322.347 718.718 333.905 718.609C347.121 718.471 347.765 704.187 342.534 698.574C341.817 697.82 338.075 695.349 336.223 693.423C335.252 692.434 336.278 690.404 337.935 690.326C340.329 690.192 342.862 690.125 345.143 690.548C347.794 691.037 350.239 692.083 353.837 693.222ZM355.347 724.469C342.07 730.913 329.359 730.744 316.384 723.563C290.157 709.068 283.717 682.27 286.37 659.526C288.514 641.152 295.717 612.124 315.248 599.048C336.248 584.984 377.775 601.688 383.617 619.385C390.185 639.337 382.22 663.33 375.684 682.98C372.666 692.053 368.866 701.368 372.227 710.652C375.891 720.777 387.275 727.429 393.537 736.61C400.981 747.587 384.038 743.534 377.344 740.172C374.69 738.841 355.715 724.298 355.347 724.469Z" fill="white"/>
</g>
</g>
</svg>
